<?xml version="1.0" encoding="utf-8"?>
<!-- Generator: Adobe Illustrator 22.1.0, SVG Export Plug-In . SVG Version: 6.00 Build 0)  -->
<svg version="1.1" id="Layer_1" xmlns="http://www.w3.org/2000/svg" xmlns:xlink="http://www.w3.org/1999/xlink" x="0px" y="0px"
	 viewBox="0 0 1000 120" style="enable-background:new 0 0 1000 120;" xml:space="preserve">
<style type="text/css">
	.st0{font-family:'NexaLight';}
	.st1{font-size:158.4245px;}
	.st2{display:none;}
</style>
<text transform="matrix(1 0 0 1 119.2104 113.853)" class="st0 st1">artrade.io</text>
<rect x="371.5" y="-38.1" class="st2" width="23.4" height="2.9"/>
<polyline class="st2" points="394.9,-46.4 404.6,-36.6 394.9,-26.9 "/>
<polyline class="st2" points="314.7,-26.9 304.9,-36.6 314.7,-46.4 "/>
<rect x="314.5" y="-38.1" class="st2" width="23.4" height="2.9"/>
<rect x="333" y="14.1" class="st2" width="111.3" height="1.4"/>
<polyline class="st2" points="472.1,-9.4 481.9,0.4 472.1,10.1 "/>
<polyline class="st2" points="299.1,10.3 289.4,0.6 299.1,-9.2 "/>
<path d="M845.1,34.5c-4.6-4.8,53.9,43.7,53.9,43.7s-68.6,51.2-49.4,33.8C883.7,81.4,884.2,75,845.1,34.5z"/>
<path d="M118.9,115.3c4.6,4.8-53.9-43.7-53.9-43.7s68.6-51.2,49.4-33.8C80.3,68.5,79.8,74.9,118.9,115.3z"/>
</svg>
